<?xml version="1.0" encoding="iso-8859-1"?>
<!-- Uploaded to: SVG Repo, www.svgrepo.com, Generator: SVG Repo Mixer Tools -->
<svg fill="#000000" version="1.1" id="Layer_1" xmlns="http://www.w3.org/2000/svg" xmlns:xlink="http://www.w3.org/1999/xlink" 
	 viewBox="0 0 496 496" xml:space="preserve">
<g>
	<g>
		<g>
			<path d="M496,107.816V50.584L369.544,0h-19.08L224,50.584v57.224l32-12.8V120H0v160h16v152H0v64h296h8h112h8h72v-64h-32V95.016
				L496,107.816z M16,136h240v128H16V136z M256,280v152H32V280H256z M288,480h-16v-16h-16v16h-16v-16h-16v16h-48v-16h-16v16h-16v-16
				h-16v16h-16v-16H96v16H80v-16H64v16H48v-16H32v16H16v-32h240h32V480z M416,464v16H304v-32h112V464z M304,304v-16h112v16H304z
				 M400,320v112h-80V320H400z M416,432V320h16v-48H288v48h16v112h-32V88.616L353.536,56h12.928L448,88.616V432H416z M480,448v32
				h-16v-16h-16v16h-16v-16v-16h32H480z M369.544,40h-19.08L240,84.184V61.416L353.536,16h12.928L480,61.416v22.776L369.544,40z"/>
			<path d="M352,152c0-17.648-14.352-32-32-32s-32,14.352-32,32v72h64V152z M336,208h-32v-56c0-8.824,7.176-16,16-16
				c8.824,0,16,7.176,16,16V208z"/>
			<path d="M400,120c-17.648,0-32,14.352-32,32v72h64v-72C432,134.352,417.648,120,400,120z M416,208h-32v-56
				c0-8.824,7.176-16,16-16c8.824,0,16,7.176,16,16V208z"/>
			<path d="M128,336c0-17.648-14.352-32-32-32s-32,14.352-32,32v72h64V336z M112,392H80v-56c0-8.824,7.176-16,16-16s16,7.176,16,16
				V392z"/>
			<path d="M224,336c0-17.648-14.352-32-32-32s-32,14.352-32,32v72h64V336z M208,392h-32v-56c0-8.824,7.176-16,16-16
				c8.824,0,16,7.176,16,16V392z"/>
			<rect x="288" y="240" width="144" height="16"/>
		</g>
	</g>
</g>
</svg>