<?xml version="1.0" encoding="iso-8859-1"?>
<!-- Uploaded to: SVG Repo, www.svgrepo.com, Generator: SVG Repo Mixer Tools -->
<svg fill="#000000" version="1.1" id="Layer_1" xmlns="http://www.w3.org/2000/svg" xmlns:xlink="http://www.w3.org/1999/xlink" 
	 viewBox="0 0 496 496" xml:space="preserve">
<g>
	<g>
		<g>
			<path d="M462.416,96H376V48h16V0H280v48h16v48H33.584l-33.4,150.264L0,272h32v224h432V272h32v-24L462.416,96z M296,16h80v16h-80
				V16z M360,48v48h-48V48H360z M144,480H48v-16h96V480z M144,448H48v-16h16v-16H48v-16h16v-16H48v-16h16v-16H48v-16h16v-16H48v-16
				h16v-16H48v-16h96v32h16v144h-8H144z M336,480H160v-16h176V480z M192,320v128h-16V304h144v144h-16V320H192z M288,336v112h-80V336
				H288z M160,288v-19.04l87.376-43.32L336,268.992V288H160z M448,480h-96v-16h96V480z M448,288h-16v16h16v16h-16v16h16v16h-16v16
				h16v16h-16v16h16v16h-16v16h16v16h-96h-8h-8V304h16v-32h96V288z M480,256H345.848l-98.52-48.184L150.128,256H16v-7.128
				L46.416,112h403.168L480,248.872V256z"/>
			<rect x="256" y="384" width="16" height="16"/>
		</g>
	</g>
</g>
</svg>